<svg xmlns="http://www.w3.org/2000/svg" viewBox="0 0 400 250" preserveAspectRatio="xMidYMid slice">
<defs>
<linearGradient id="bg" x1="0" y1="0" x2="1" y2="1"><stop offset="0" stop-color="#0f1622"/><stop offset="1" stop-color="#0a0e15"/></linearGradient>
<radialGradient id="gl" cx="0.68" cy="0.28" r="0.75"><stop offset="0" stop-color="#7ee1c4" stop-opacity="0.14"/><stop offset="1" stop-color="#7ee1c4" stop-opacity="0"/></radialGradient>
</defs>
<rect width="400" height="250" fill="url(#bg)"/>
<g fill="none" stroke="#33465c" stroke-opacity="0.22" stroke-width="1"><polygon points="39.0,-10.0 30.0,5.6 12.0,5.6 3.0,-10.0 12.0,-25.6 30.0,-25.6"/><polygon points="8.0,44.0 -1.0,59.6 -19.0,59.6 -28.0,44.0 -19.0,28.4 -1.0,28.4"/><polygon points="39.0,98.0 30.0,113.6 12.0,113.6 3.0,98.0 12.0,82.4 30.0,82.4"/><polygon points="8.0,152.0 -1.0,167.6 -19.0,167.6 -28.0,152.0 -19.0,136.4 -1.0,136.4"/><polygon points="39.0,206.0 30.0,221.6 12.0,221.6 3.0,206.0 12.0,190.4 30.0,190.4"/><polygon points="101.0,-10.0 92.0,5.6 74.0,5.6 65.0,-10.0 74.0,-25.6 92.0,-25.6"/><polygon points="70.0,44.0 61.0,59.6 43.0,59.6 34.0,44.0 43.0,28.4 61.0,28.4"/><polygon points="101.0,98.0 92.0,113.6 74.0,113.6 65.0,98.0 74.0,82.4 92.0,82.4"/><polygon points="70.0,152.0 61.0,167.6 43.0,167.6 34.0,152.0 43.0,136.4 61.0,136.4"/><polygon points="101.0,206.0 92.0,221.6 74.0,221.6 65.0,206.0 74.0,190.4 92.0,190.4"/><polygon points="163.0,-10.0 154.0,5.6 136.0,5.6 127.0,-10.0 136.0,-25.6 154.0,-25.6"/><polygon points="132.0,44.0 123.0,59.6 105.0,59.6 96.0,44.0 105.0,28.4 123.0,28.4"/><polygon points="163.0,98.0 154.0,113.6 136.0,113.6 127.0,98.0 136.0,82.4 154.0,82.4"/><polygon points="132.0,152.0 123.0,167.6 105.0,167.6 96.0,152.0 105.0,136.4 123.0,136.4"/><polygon points="163.0,206.0 154.0,221.6 136.0,221.6 127.0,206.0 136.0,190.4 154.0,190.4"/><polygon points="225.0,-10.0 216.0,5.6 198.0,5.6 189.0,-10.0 198.0,-25.6 216.0,-25.6"/><polygon points="194.0,44.0 185.0,59.6 167.0,59.6 158.0,44.0 167.0,28.4 185.0,28.4"/><polygon points="225.0,98.0 216.0,113.6 198.0,113.6 189.0,98.0 198.0,82.4 216.0,82.4"/><polygon points="194.0,152.0 185.0,167.6 167.0,167.6 158.0,152.0 167.0,136.4 185.0,136.4"/><polygon points="225.0,206.0 216.0,221.6 198.0,221.6 189.0,206.0 198.0,190.4 216.0,190.4"/><polygon points="287.0,-10.0 278.0,5.6 260.0,5.6 251.0,-10.0 260.0,-25.6 278.0,-25.6"/><polygon points="256.0,44.0 247.0,59.6 229.0,59.6 220.0,44.0 229.0,28.4 247.0,28.4"/><polygon points="287.0,98.0 278.0,113.6 260.0,113.6 251.0,98.0 260.0,82.4 278.0,82.4"/><polygon points="256.0,152.0 247.0,167.6 229.0,167.6 220.0,152.0 229.0,136.4 247.0,136.4"/><polygon points="287.0,206.0 278.0,221.6 260.0,221.6 251.0,206.0 260.0,190.4 278.0,190.4"/><polygon points="349.0,-10.0 340.0,5.6 322.0,5.6 313.0,-10.0 322.0,-25.6 340.0,-25.6"/><polygon points="318.0,44.0 309.0,59.6 291.0,59.6 282.0,44.0 291.0,28.4 309.0,28.4"/><polygon points="349.0,98.0 340.0,113.6 322.0,113.6 313.0,98.0 322.0,82.4 340.0,82.4"/><polygon points="318.0,152.0 309.0,167.6 291.0,167.6 282.0,152.0 291.0,136.4 309.0,136.4"/><polygon points="349.0,206.0 340.0,221.6 322.0,221.6 313.0,206.0 322.0,190.4 340.0,190.4"/><polygon points="411.0,-10.0 402.0,5.6 384.0,5.6 375.0,-10.0 384.0,-25.6 402.0,-25.6"/><polygon points="380.0,44.0 371.0,59.6 353.0,59.6 344.0,44.0 353.0,28.4 371.0,28.4"/><polygon points="411.0,98.0 402.0,113.6 384.0,113.6 375.0,98.0 384.0,82.4 402.0,82.4"/><polygon points="380.0,152.0 371.0,167.6 353.0,167.6 344.0,152.0 353.0,136.4 371.0,136.4"/><polygon points="411.0,206.0 402.0,221.6 384.0,221.6 375.0,206.0 384.0,190.4 402.0,190.4"/></g>
<rect width="400" height="250" fill="url(#gl)"/>
<g stroke="#7ee1c4" stroke-opacity="0.55" stroke-width="1.5"><line x1="70" y1="92" x2="152" y2="52"/><line x1="152" y1="52" x2="206" y2="138"/><line x1="206" y1="138" x2="300" y2="72"/><line x1="300" y1="72" x2="342" y2="168"/><line x1="206" y1="138" x2="342" y2="168"/><line x1="70" y1="92" x2="116" y2="186"/><line x1="116" y1="186" x2="256" y2="206"/><line x1="206" y1="138" x2="256" y2="206"/><line x1="152" y1="52" x2="300" y2="72"/><line x1="300" y1="72" x2="362" y2="58"/><line x1="206" y1="138" x2="362" y2="58"/></g>
<circle cx="70" cy="92" r="4.2" fill="#7ee1c4"/><circle cx="152" cy="52" r="4.2" fill="#7ee1c4"/><circle cx="206" cy="138" r="6" fill="#7ee1c4"/><circle cx="206" cy="138" r="2" fill="#eafff8"/><circle cx="300" cy="72" r="6" fill="#7ee1c4"/><circle cx="300" cy="72" r="2" fill="#eafff8"/><circle cx="342" cy="168" r="4.2" fill="#7ee1c4"/><circle cx="116" cy="186" r="4.2" fill="#7ee1c4"/><circle cx="256" cy="206" r="4.2" fill="#7ee1c4"/><circle cx="362" cy="58" r="4.2" fill="#7ee1c4"/>
</svg>