<svg xmlns="http://www.w3.org/2000/svg" viewBox="0 0 400 250" preserveAspectRatio="xMidYMid slice">
<defs>
<linearGradient id="bg" x1="0" y1="0" x2="1" y2="1"><stop offset="0" stop-color="#0f1622"/><stop offset="1" stop-color="#0a0e15"/></linearGradient>
<radialGradient id="gl" cx="0.5" cy="0.5" r="0.7"><stop offset="0" stop-color="#7ee1c4" stop-opacity="0.12"/><stop offset="1" stop-color="#7ee1c4" stop-opacity="0"/></radialGradient>
</defs>
<rect width="400" height="250" fill="url(#bg)"/>
<rect width="400" height="250" fill="url(#gl)"/>
<line x1="14" y1="125" x2="386" y2="125" stroke="#33465c" stroke-opacity="0.35" stroke-width="1"/>
<g><rect x="26" y="120.0" width="4" height="10.0" rx="2" fill="#7ee1c4" fill-opacity="0.35"/><rect x="34" y="106.5" width="4" height="37.0" rx="2" fill="#7ee1c4" fill-opacity="0.49"/><rect x="42" y="94.6" width="4" height="60.9" rx="2" fill="#7ee1c4" fill-opacity="0.61"/><rect x="50" y="85.5" width="4" height="79.0" rx="2" fill="#7ee1c4" fill-opacity="0.71"/><rect x="58" y="80.0" width="4" height="90.0" rx="2" fill="#7ee1c4" fill-opacity="0.77"/><rect x="66" y="78.0" width="4" height="94.0" rx="2" fill="#7ee1c4" fill-opacity="0.79"/><rect x="74" y="78.9" width="4" height="92.2" rx="2" fill="#7ee1c4" fill-opacity="0.78"/><rect x="82" y="73.1" width="4" height="103.8" rx="2" fill="#7ee1c4" fill-opacity="0.84"/><rect x="90" y="72.0" width="4" height="106.0" rx="2" fill="#7ee1c4" fill-opacity="0.85"/><rect x="98" y="72.0" width="4" height="106.0" rx="2" fill="#7ee1c4" fill-opacity="0.85"/><rect x="106" y="75.8" width="4" height="98.5" rx="2" fill="#7ee1c4" fill-opacity="0.81"/><rect x="114" y="83.7" width="4" height="82.5" rx="2" fill="#7ee1c4" fill-opacity="0.73"/><rect x="122" y="93.8" width="4" height="62.4" rx="2" fill="#7ee1c4" fill-opacity="0.62"/><rect x="130" y="96.0" width="4" height="58.0" rx="2" fill="#7ee1c4" fill-opacity="0.60"/><rect x="138" y="99.3" width="4" height="51.4" rx="2" fill="#7ee1c4" fill-opacity="0.57"/><rect x="146" y="104.3" width="4" height="41.3" rx="2" fill="#7ee1c4" fill-opacity="0.51"/><rect x="154" y="111.1" width="4" height="27.8" rx="2" fill="#7ee1c4" fill-opacity="0.44"/><rect x="162" y="112.1" width="4" height="25.7" rx="2" fill="#7ee1c4" fill-opacity="0.43"/><rect x="170" y="112.8" width="4" height="24.5" rx="2" fill="#7ee1c4" fill-opacity="0.43"/><rect x="178" y="106.3" width="4" height="37.5" rx="2" fill="#7ee1c4" fill-opacity="0.49"/><rect x="186" y="101.9" width="4" height="46.2" rx="2" fill="#7ee1c4" fill-opacity="0.54"/><rect x="194" y="100.8" width="4" height="48.5" rx="2" fill="#7ee1c4" fill-opacity="0.55"/><rect x="202" y="103.0" width="4" height="43.9" rx="2" fill="#7ee1c4" fill-opacity="0.53"/><rect x="210" y="108.2" width="4" height="33.6" rx="2" fill="#7ee1c4" fill-opacity="0.47"/><rect x="218" y="115.1" width="4" height="19.7" rx="2" fill="#7ee1c4" fill-opacity="0.40"/><rect x="226" y="114.1" width="4" height="21.8" rx="2" fill="#7ee1c4" fill-opacity="0.41"/><rect x="234" y="111.5" width="4" height="27.0" rx="2" fill="#7ee1c4" fill-opacity="0.44"/><rect x="242" y="107.8" width="4" height="34.5" rx="2" fill="#7ee1c4" fill-opacity="0.48"/><rect x="250" y="107.0" width="4" height="36.0" rx="2" fill="#7ee1c4" fill-opacity="0.49"/><rect x="258" y="109.2" width="4" height="31.5" rx="2" fill="#7ee1c4" fill-opacity="0.46"/><rect x="266" y="113.8" width="4" height="22.5" rx="2" fill="#7ee1c4" fill-opacity="0.41"/><rect x="274" y="111.3" width="4" height="27.3" rx="2" fill="#7ee1c4" fill-opacity="0.44"/><rect x="282" y="110.8" width="4" height="28.4" rx="2" fill="#7ee1c4" fill-opacity="0.45"/><rect x="290" y="109.4" width="4" height="31.1" rx="2" fill="#7ee1c4" fill-opacity="0.46"/><rect x="298" y="105.7" width="4" height="38.5" rx="2" fill="#7ee1c4" fill-opacity="0.50"/><rect x="306" y="103.4" width="4" height="43.2" rx="2" fill="#7ee1c4" fill-opacity="0.52"/><rect x="314" y="101.9" width="4" height="46.1" rx="2" fill="#7ee1c4" fill-opacity="0.54"/><rect x="322" y="92.4" width="4" height="65.2" rx="2" fill="#7ee1c4" fill-opacity="0.64"/><rect x="330" y="83.8" width="4" height="82.4" rx="2" fill="#7ee1c4" fill-opacity="0.73"/><rect x="338" y="78.0" width="4" height="94.0" rx="2" fill="#7ee1c4" fill-opacity="0.79"/><rect x="346" y="75.6" width="4" height="98.9" rx="2" fill="#7ee1c4" fill-opacity="0.81"/><rect x="354" y="76.6" width="4" height="96.8" rx="2" fill="#7ee1c4" fill-opacity="0.80"/><rect x="362" y="80.5" width="4" height="89.0" rx="2" fill="#7ee1c4" fill-opacity="0.76"/><rect x="370" y="78.1" width="4" height="93.7" rx="2" fill="#7ee1c4" fill-opacity="0.79"/></g>
</svg>